<?xml version="1.0" standalone="no"?>
<!DOCTYPE svg PUBLIC "-//W3C//DTD SVG 20010904//EN"
 "http://www.w3.org/TR/2001/REC-SVG-20010904/DTD/svg10.dtd">
<svg version="1.0" xmlns="http://www.w3.org/2000/svg"
 width="512.000000pt" height="512.000000pt" viewBox="0 0 512.000000 512.000000"
 preserveAspectRatio="xMidYMid meet">
<metadata>
Created by potrace 1.14, written by Peter Selinger 2001-2017
</metadata>
<g transform="translate(0.000000,512.000000) scale(0.100000,-0.100000)"
fill="#000000" stroke="none">
<path d="M304 5096 c-28 -13 -63 -39 -77 -57 -51 -67 -196 -381 -213 -459 -15
-72 -15 -249 1 -335 4 -24 59 -367 78 -490 3 -16 12 -73 20 -125 9 -52 18
-113 21 -135 4 -22 11 -65 16 -95 5 -30 12 -73 15 -95 3 -22 8 -49 10 -61 3
-12 9 -52 15 -90 5 -38 12 -80 14 -94 3 -14 7 -43 11 -65 14 -99 26 -169 29
-174 2 -3 7 -33 11 -66 3 -32 8 -62 10 -65 1 -3 6 -30 10 -60 7 -58 10 -77 18
-125 3 -16 9 -50 12 -75 4 -25 9 -54 11 -65 2 -11 7 -42 10 -70 l6 -50 -53
-40 c-77 -58 -127 -111 -174 -185 -38 -59 -72 -131 -80 -170 -2 -8 -8 -35 -14
-60 -16 -69 -6 -234 18 -310 54 -168 151 -285 326 -391 l78 -47 214 0 c117 -1
213 2 213 5 0 4 -37 63 -82 131 l-83 124 -1 517 c-1 284 -4 595 -8 691 -3 96
-8 265 -11 375 -3 110 -7 270 -10 355 -5 177 -14 499 -20 738 l-4 163 72 -39
c40 -22 108 -59 152 -82 44 -24 114 -62 155 -85 41 -23 116 -64 165 -90 50
-26 133 -71 185 -100 52 -29 136 -74 185 -100 50 -26 189 -102 310 -168 121
-66 244 -132 272 -148 168 -91 281 -225 344 -406 10 -29 15 -54 11 -54 -4 -1
-136 -2 -294 -3 -158 -1 -289 -4 -291 -6 -2 -3 -81 -121 -175 -262 l-172 -257
1 -519 1 -520 302 0 301 1 3 -131 3 -130 -373 -2 c-383 -1 -388 -1 -448 -15
-186 -42 -352 -218 -387 -408 -25 -138 19 -313 105 -419 72 -90 196 -167 303
-187 35 -7 611 -10 1674 -10 1788 -1 1673 -5 1799 62 158 84 258 239 272 421
19 262 -161 497 -420 547 -28 5 -217 10 -421 10 l-370 1 0 129 0 129 25 1 c14
0 150 1 303 1 l277 0 1 26 c0 15 1 171 0 348 l0 320 -130 131 -131 131 1 104
c2 117 -16 169 -70 207 -45 32 -92 36 -413 36 -262 -1 -298 1 -302 14 -3 9
-23 86 -46 171 -62 234 -86 305 -145 425 -67 138 -124 216 -240 330 -97 96
-187 161 -300 218 -61 30 -392 176 -825 364 -69 30 -138 61 -155 68 -68 32
-934 408 -980 427 -27 11 -71 20 -97 19 -27 0 -48 3 -49 7 0 4 -3 68 -5 142
-3 74 -9 151 -14 171 -34 125 -186 193 -306 135z"/>
</g>
</svg>
